<?xml version="1.0" encoding="utf-8"?>
<!-- Generator: Adobe Illustrator 18.0.0, SVG Export Plug-In . SVG Version: 6.00 Build 0)  -->
<!DOCTYPE svg PUBLIC "-//W3C//DTD SVG 1.1//EN" "http://www.w3.org/Graphics/SVG/1.1/DTD/svg11.dtd">
<svg version="1.1" id="图层_1" xmlns="http://www.w3.org/2000/svg" xmlns:xlink="http://www.w3.org/1999/xlink" x="0px" y="0px"
	 viewBox="0 0 841.9 595.3" enable-background="new 0 0 841.9 595.3" xml:space="preserve">
<defs>
	<style>.p1{fill:#9e7a7a}</style>
</defs>
<path class="p1" d="M456.6,95.8c0-20.6-13.8-32.2-27.3-32.3c-13.5,0.1-27.3,11.7-27.3,32.3c0,23.6,25.1,75,27.3,79
	C431.5,170.9,456.6,119.5,456.6,95.8z M429.3,82.8c4.4,0,8.9,4.6,8.9,12.7c0,9.3-8.2,29.5-8.9,31c-0.7-1.6-8.9-21.8-8.9-31
	C420.4,87.4,424.8,82.8,429.3,82.8z"/>
<path class="p1" d="M613.1,146.2c12.9-16.1,9.3-33.8-1.2-42.3c-10.6-8.4-28.6-7.9-41.5,8.2c-14.7,18.5-27.2,74.3-27.9,78.8
	C546.7,189.2,598.3,164.6,613.1,146.2z M598.9,134.4c-5.8,7.2-24.8,17.9-26.3,18.7c0.4-1.7,6.6-22.6,12.4-29.8
	c5-6.3,11.4-7.1,14.9-4.4C603.3,121.7,604,128,598.9,134.4z"/>
<path class="p1" d="M685.4,201.1c-6.2-12-22.8-19-41.2-9.7c-21,10.7-55.5,56.4-58,60.3c4.6,0.2,61.8-0.8,82.8-11.6
	C687.4,230.7,691.5,213.2,685.4,201.1z M661,223.5c-8.3,4.2-30,6.1-31.7,6.2c1.1-1.4,15.3-17.8,23.6-22c7.2-3.7,13.3-1.8,15.3,2.2
	C670.2,213.8,668.2,219.8,661,223.5z"/>
<path class="p1" d="M317.8,190.9c-0.7-4.5-13.2-60.4-27.9-78.8C277,96,259,95.5,248.4,103.9c-10.5,8.5-14.1,26.2-1.2,42.3
	C261.9,164.6,313.6,189.2,317.8,190.9z M260.4,118.9c3.5-2.7,9.8-2,14.9,4.4c5.8,7.2,12,28.1,12.4,29.8
	c-1.6-0.8-20.5-11.5-26.3-18.7C256.3,128,257,121.7,260.4,118.9z"/>
<path class="p1" d="M216,191.4c-18.4-9.4-35-2.4-41.2,9.7c-6.1,12.1-2,29.7,16.4,39c21,10.7,78.2,11.8,82.8,11.6
	C271.5,247.8,237.1,202.1,216,191.4z M199.3,223.5c-7.2-3.7-9.2-9.7-7.3-13.7c2-3.9,8.1-5.8,15.3-2.2c8.3,4.2,22.5,20.7,23.6,22
	C229.2,229.6,207.5,227.7,199.3,223.5z"/>
<path class="p1" d="M429.3,234.3c-17.9-20.4-43-36.2-71-34.7c-25.9,1.3-45.6,17.1-59.9,37.6c-16.5,26.6-18.1,60.7-4.1,88.7
	c7.7,17.7,19.3,33.5,33.8,46.2c9.5,7.4,21.6-6.2,13.2-14.8C323.6,344,312,317,312,317c-10.9-21.7-9.7-48.2,2.9-68.9
	c10.4-14.8,24-27,42.8-28.6c19.9-1.7,38.1,9,51.7,22.6l19.8,18.4l19.8-18.4c13.1-13.2,30.5-23.6,49.6-22.8
	c19.7,0.8,34,13.4,44.9,28.7c12.7,20.7,14.9,49.2,0.3,74.6c-28.6,47.8-70.3,87.1-119.1,113.7c-2.5,1.6-4.2,4.5-4.2,7.7v16.7v35.3
	c-16.8,4.3-28.2,20.8-26.4,38c1.8,16.9,16.1,30.4,33.1,31.4c17,0.9,32.7-10.9,36.4-27.6c3.9-17.6-6.7-35.8-23.9-41.2v-45.9
	c72-41.7,112.7-97.9,124.5-124.8c14-28,12.4-62.2-4.1-88.7c-2.7-3.8-23.7-37.7-62-37.7C475.5,199.5,451,209.6,429.3,234.3z
	 M445.5,530.2c0,21-32.5,21-32.5,0S445.5,509.3,445.5,530.2z"/>
</svg>
